<svg xmlns="http://www.w3.org/2000/svg" width="48" height="48" fill="none"><g clip-path="url(#a)"><mask id="b" width="48" height="48" x="0" y="0" maskUnits="userSpaceOnUse" style="mask-type:luminance"><path fill="#fff" d="M48 0H0v48h48V0z"/></mask><g mask="url(#b)"><path fill="url(#c)" d="M24 0c.003 8.854 10.707 13.288 16.97 7.03C34.713 13.292 39.147 23.996 48 24c-8.854.003-13.288 10.707-7.03 16.97C34.708 34.713 24.004 39.147 24 48c-.003-8.854-10.707-13.288-16.97-7.03C13.287 34.708 8.853 24.004 0 24c8.854-.003 13.288-10.707 7.03-16.97C13.292 13.287 23.996 8.853 24 0z"/></g></g><defs><linearGradient id="c" x1="24" x2="24" y1="0" y2="48" gradientUnits="userSpaceOnUse"><stop stop-color="#49235F"/><stop offset="1" stop-color="#D387FF"/></linearGradient><clipPath id="a"><path fill="#fff" d="M0 0h48v48H0z"/></clipPath></defs></svg>