<svg xmlns="http://www.w3.org/2000/svg" width="48" height="48" fill="none"><path fill="url(#a)" fill-rule="evenodd" d="M30.865 3.92c-3.067-5.227-10.624-5.227-13.691 0l-.111.19a7.937 7.937 0 0 1-6.79 3.92l-.22.002c-6.06.042-9.84 6.587-6.846 11.857l.109.19a7.937 7.937 0 0 1 0 7.841l-.109.191c-2.993 5.27.785 11.815 6.846 11.857l.22.002a7.938 7.938 0 0 1 6.79 3.92l.11.19c3.068 5.227 10.625 5.227 13.692 0l.111-.19a7.938 7.938 0 0 1 6.79-3.92l.22-.002c6.06-.042 9.84-6.587 6.846-11.857l-.11-.19a7.937 7.937 0 0 1 0-7.841l.11-.191c2.993-5.27-.785-11.815-6.846-11.857l-.22-.002a7.937 7.937 0 0 1-6.79-3.92l-.111-.19zM24.02 35.905c6.574 0 11.904-5.33 11.904-11.905 0-6.575-5.33-11.905-11.904-11.905-6.576 0-11.906 5.33-11.906 11.905 0 6.575 5.33 11.905 11.905 11.905z" clip-rule="evenodd"/><defs><linearGradient id="a" x1="24.019" x2="24.019" y1="0" y2="48" gradientUnits="userSpaceOnUse"><stop stop-color="#49235F"/><stop offset="1" stop-color="#D387FF"/></linearGradient></defs></svg>