<svg xmlns="http://www.w3.org/2000/svg" width="48" height="48" fill="none"><g clip-path="url(#a)"><mask id="b" width="48" height="48" x="0" y="0" maskUnits="userSpaceOnUse" style="mask-type:luminance"><path fill="#fff" d="M48 0H0v48h48V0z"/></mask><g mask="url(#b)"><path fill="url(#c)" fill-rule="evenodd" d="M14.719 24c-27.851 20.515-11.224 37.143 9.286 9.287C44.5 61.143 61.128 44.515 33.29 23.999c27.851-20.513 11.224-37.143-9.285-9.284-20.522-27.85-37.15-11.229-9.286 9.284zM24 30a6 6 0 1 0 0-12 6 6 0 0 0 0 12z" clip-rule="evenodd"/></g></g><defs><linearGradient id="c" x1="24" x2="24" y1="0" y2="48" gradientUnits="userSpaceOnUse"><stop stop-color="#49235F"/><stop offset="1" stop-color="#D387FF"/></linearGradient><clipPath id="a"><path fill="#fff" d="M0 0h48v48H0z"/></clipPath></defs></svg>