<svg xmlns="http://www.w3.org/2000/svg" width="48" height="48" fill="none"><g clip-path="url(#a)"><mask id="b" width="48" height="48" x="0" y="0" maskUnits="userSpaceOnUse" style="mask-type:luminance"><path fill="#fff" d="M48 0H0v48h48V0z"/></mask><g mask="url(#b)"><path fill="url(#c)" d="M24 48a8.413 8.413 0 0 1-4.375-1.188A8.798 8.798 0 0 1 16.5 43.75c-.75-1.333-1.125-2.792-1.125-4.375 0-2 .458-3.667 1.375-5 .917-1.333 2.333-2.896 4.25-4.688 1.417-1.291 2.125-2.52 2.125-3.687v-1.125H22c-1.292 0-3.063 1.292-5.313 3.875-2.208 2.583-4.895 3.875-8.062 3.875-1.583 0-3.042-.375-4.375-1.125a9.342 9.342 0 0 1-3.125-3.125C.375 27.042 0 25.583 0 24c0-1.583.375-3.02 1.125-4.313.792-1.333 1.833-2.375 3.125-3.125a8.413 8.413 0 0 1 4.375-1.187c3.125 0 5.792 1.27 8 3.813C18.833 21.729 20.625 23 22 23h1.125v-1c0-1.167-.708-2.396-2.125-3.688L19.562 17c-1.041-.958-2-2.104-2.875-3.438-.875-1.374-1.312-3.02-1.312-4.937 0-1.583.375-3.02 1.125-4.312.792-1.334 1.833-2.375 3.125-3.125A8.413 8.413 0 0 1 24 0c1.583 0 3.02.396 4.313 1.188 1.333.791 2.375 1.833 3.125 3.125.791 1.291 1.187 2.729 1.187 4.312 0 3.125-1.27 5.792-3.813 8C26.271 18.833 25 20.625 25 22v1h1c1.417 0 3.208-1.27 5.375-3.813 2.125-2.541 4.792-3.812 8-3.812 1.583 0 3.02.396 4.312 1.188a8.173 8.173 0 0 1 3.126 3.062C47.603 20.917 48 22.375 48 24a8.413 8.413 0 0 1-1.188 4.375c-.75 1.292-1.791 2.333-3.125 3.125-1.291.75-2.729 1.125-4.312 1.125-1.958 0-3.646-.48-5.062-1.438-1.375-.958-2.917-2.354-4.626-4.187-1.291-1.417-2.52-2.125-3.687-2.125h-1V26c0 1.542 1.27 3.333 3.813 5.375 2.541 2.042 3.812 4.708 3.812 8a8.416 8.416 0 0 1-1.187 4.375 8.306 8.306 0 0 1-3.063 3.063C27.083 47.603 25.625 48 24 48z"/></g></g><defs><linearGradient id="c" x1="24" x2="24" y1="0" y2="48" gradientUnits="userSpaceOnUse"><stop stop-color="#49235F"/><stop offset="1" stop-color="#D387FF"/></linearGradient><clipPath id="a"><path fill="#fff" d="M0 0h48v48H0z"/></clipPath></defs></svg>