<svg xmlns="http://www.w3.org/2000/svg" width="128" height="27" fill="none"><path fill="#D387FF" fill-opacity=".6" d="M19.283 19.329h6.659L9.447 2.834h-6.66l16.496 16.495zM12.867 2.833 28.77 18.735V2.834h-4.303v5.02l-5.02-5.02h-6.579zM0 3.386v15.943h4.303v-5.02l5.02 5.02h6.62L0 3.386zm39.153 13.463h3.855v2.272H36.21V7.038h2.944v9.81zm9.115 2.409c-.941 0-1.79-.2-2.548-.602a4.484 4.484 0 0 1-1.773-1.721c-.424-.746-.637-1.618-.637-2.617 0-.986.218-1.853.655-2.599a4.422 4.422 0 0 1 1.79-1.738c.757-.402 1.606-.603 2.547-.603.941 0 1.79.201 2.548.603a4.423 4.423 0 0 1 1.79 1.738c.436.746.654 1.613.654 2.6 0 .986-.224 1.858-.672 2.616a4.427 4.427 0 0 1-1.807 1.72c-.757.403-1.606.603-2.547.603zm0-2.547a1.89 1.89 0 0 0 1.428-.62c.402-.413.603-1.004.603-1.773 0-.768-.195-1.36-.585-1.772a1.837 1.837 0 0 0-1.412-.62 1.85 1.85 0 0 0-1.428.62c-.38.401-.569.992-.569 1.772 0 .77.184 1.36.551 1.773.379.413.85.62 1.412.62zm9.72-7.333c.677 0 1.268.138 1.773.414.516.275.912.636 1.188 1.084v-1.36h2.943v9.588c0 .883-.178 1.68-.534 2.392a3.922 3.922 0 0 1-1.6 1.721c-.712.425-1.601.637-2.668.637-1.423 0-2.577-.338-3.46-1.015-.884-.666-1.389-1.572-1.515-2.72h2.91c.09.367.309.654.653.86.344.219.769.328 1.274.328.608 0 1.09-.178 1.446-.534.367-.344.55-.9.55-1.67v-1.36a3.337 3.337 0 0 1-1.187 1.102c-.505.276-1.096.413-1.773.413-.792 0-1.509-.2-2.152-.602-.642-.413-1.153-.993-1.532-1.738-.367-.758-.55-1.63-.55-2.617 0-.987.183-1.853.55-2.599.38-.746.89-1.32 1.532-1.721a3.977 3.977 0 0 1 2.152-.603zm2.96 4.94c0-.734-.206-1.313-.62-1.738a1.958 1.958 0 0 0-1.48-.637 2.01 2.01 0 0 0-1.497.637c-.402.413-.602.987-.602 1.721 0 .735.2 1.32.602 1.756.413.425.912.637 1.498.637.585 0 1.078-.212 1.48-.637.413-.425.62-1.004.62-1.739zm8.929 4.94c-.941 0-1.79-.2-2.548-.602a4.484 4.484 0 0 1-1.772-1.721c-.425-.746-.637-1.618-.637-2.617 0-.986.218-1.853.654-2.599a4.423 4.423 0 0 1 1.79-1.738c.757-.402 1.606-.603 2.547-.603.941 0 1.79.201 2.548.603a4.422 4.422 0 0 1 1.79 1.738c.436.746.654 1.613.654 2.6 0 .986-.224 1.858-.671 2.616a4.427 4.427 0 0 1-1.808 1.72c-.757.403-1.606.603-2.547.603zm0-2.547a1.89 1.89 0 0 0 1.428-.62c.402-.413.603-1.004.603-1.773 0-.768-.195-1.36-.585-1.772a1.837 1.837 0 0 0-1.412-.62c-.573 0-1.05.206-1.428.62-.38.401-.568.992-.568 1.772 0 .77.183 1.36.55 1.773.379.413.85.62 1.412.62zm7.551-8.193c-.516 0-.94-.15-1.274-.448a1.518 1.518 0 0 1-.481-1.136c0-.459.16-.837.481-1.136.333-.31.758-.465 1.274-.465.505 0 .918.155 1.24.465.332.299.499.677.499 1.136 0 .448-.167.826-.5 1.136-.32.299-.734.448-1.239.448zm1.463.998v9.605h-2.943V9.516h2.943zm4.56 1.36a3.2 3.2 0 0 1 1.188-1.084c.504-.276 1.096-.414 1.773-.414a3.97 3.97 0 0 1 2.151.603c.643.402 1.148.975 1.515 1.721.38.746.568 1.612.568 2.6 0 .986-.189 1.858-.568 2.616-.367.745-.872 1.325-1.515 1.738a3.974 3.974 0 0 1-2.151.602c-.666 0-1.257-.137-1.773-.413a3.256 3.256 0 0 1-1.188-1.067V23.7h-2.943V9.516h2.943v1.36zm4.2 3.425c0-.734-.206-1.308-.62-1.721a1.977 1.977 0 0 0-1.497-.637 2.01 2.01 0 0 0-1.497.637c-.402.425-.603 1.004-.603 1.738 0 .735.201 1.314.603 1.739a2.01 2.01 0 0 0 1.497.637c.586 0 1.084-.212 1.497-.637.414-.436.62-1.021.62-1.756zm7.929 4.957c-.837 0-1.582-.143-2.236-.43-.655-.287-1.171-.677-1.55-1.17a3.143 3.143 0 0 1-.636-1.687h2.909c.034.333.189.602.465.809.274.206.613.31 1.015.31.367 0 .648-.07.843-.207.207-.15.31-.338.31-.568 0-.275-.144-.476-.43-.602-.288-.138-.752-.287-1.394-.448a14.181 14.181 0 0 1-1.722-.5 3.093 3.093 0 0 1-1.188-.843c-.332-.39-.499-.912-.499-1.566 0-.55.15-1.05.448-1.497.31-.46.757-.82 1.342-1.085.597-.264 1.303-.396 2.117-.396 1.206 0 2.153.299 2.84.896.7.596 1.102 1.388 1.206 2.375H96.7a1.164 1.164 0 0 0-.448-.792c-.24-.195-.562-.293-.963-.293-.344 0-.608.07-.793.207a.61.61 0 0 0-.274.534c0 .275.143.482.43.62.298.137.757.275 1.377.412.711.184 1.29.367 1.738.551.447.172.838.46 1.17.86.345.39.523.919.534 1.584a2.53 2.53 0 0 1-.482 1.515c-.31.436-.763.78-1.36 1.033-.585.252-1.268.378-2.048.378zm14.659-9.742v9.605h-2.943v-1.308a3.286 3.286 0 0 1-1.222 1.032 3.718 3.718 0 0 1-1.686.379c-.735 0-1.384-.16-1.946-.482a3.365 3.365 0 0 1-1.308-1.429c-.309-.62-.464-1.348-.464-2.186v-5.61h2.926v5.215c0 .642.166 1.141.498 1.497.334.356.781.534 1.343.534.574 0 1.027-.178 1.36-.534.333-.356.499-.855.499-1.497V9.515h2.943zm13.853-.103c1.194 0 2.141.361 2.84 1.084.712.723 1.068 1.727 1.068 3.012v5.611h-2.927v-5.215c0-.62-.165-1.096-.499-1.429-.321-.344-.768-.516-1.342-.516-.574 0-1.027.172-1.36.516-.321.333-.482.81-.482 1.429v5.215h-2.926v-5.215c0-.62-.166-1.096-.499-1.429-.322-.344-.769-.516-1.343-.516s-1.027.172-1.36.516c-.32.333-.481.81-.481 1.429v5.215h-2.944V9.516h2.944v1.205a3.072 3.072 0 0 1 1.17-.947 3.619 3.619 0 0 1 1.635-.361c.723 0 1.366.155 1.928.464.574.31 1.021.752 1.343 1.326a3.87 3.87 0 0 1 1.36-1.291 3.67 3.67 0 0 1 1.875-.5z"/></svg>