<svg xmlns="http://www.w3.org/2000/svg" width="48" height="48" fill="none"><g clip-path="url(#a)"><mask id="b" width="48" height="48" x="0" y="0" maskUnits="userSpaceOnUse" style="mask-type:luminance"><path fill="#fff" d="M48 0H0v48h48V0z"/></mask><g mask="url(#b)"><path fill="url(#c)" fill-rule="evenodd" d="M23.999 40.742C25.356 42.372 26.713 44 29.428 44c6.249 0 8.054-8.311 8.056-14.569 0-2.714 1.629-4.071 3.258-5.429C42.371 22.645 44 21.288 44 18.574c0-6.251-8.323-8.059-14.57-8.059-2.714 0-4.072-1.628-5.429-3.257C22.644 5.628 21.287 4 18.572 4c-6.251 0-8.058 8.323-8.058 14.569 0 2.714-1.629 4.072-3.257 5.429C5.628 25.355 4 26.712 4 29.427c0 6.25 8.321 8.058 14.57 8.058 2.714 0 4.072 1.628 5.429 3.257zM24 31.4a7.4 7.4 0 1 0 0-14.8 7.4 7.4 0 0 0 0 14.8z" clip-rule="evenodd"/></g></g><defs><linearGradient id="c" x1="24" x2="24" y1="4" y2="44" gradientUnits="userSpaceOnUse"><stop stop-color="#49235F"/><stop offset="1" stop-color="#D387FF"/></linearGradient><clipPath id="a"><path fill="#fff" d="M0 0h48v48H0z"/></clipPath></defs></svg>