<svg xmlns="http://www.w3.org/2000/svg" width="129" height="27" fill="none"><g fill="#D387FF" fill-opacity=".6" clip-path="url(#a)"><path d="M67.489 18.58h2.57V9.2h-2.57v9.38zm0-10.844h2.57v-2.23h-2.57v2.23zm4.227 13.915h2.57V17.52h.037c.548.805 1.437 1.335 2.797 1.335 2.495 0 4.196-1.92 4.196-4.956 0-2.925-1.644-4.955-4.215-4.955-1.323 0-2.23.603-2.853 1.426h-.057V9.2h-2.475v12.45zm4.856-4.863c-1.53 0-2.343-1.116-2.343-2.816 0-1.683.642-3.018 2.249-3.018 1.587 0 2.23 1.244 2.23 3.018 0 1.773-.832 2.816-2.136 2.816zm9.871 2.066c2.419 0 4.082-1.134 4.082-3.017 0-2.195-1.795-2.633-3.42-2.963-1.38-.274-2.665-.347-2.665-1.152 0-.676.661-1.042 1.663-1.042 1.096 0 1.758.366 1.87 1.372h2.325c-.189-1.884-1.606-3.11-4.157-3.11-2.212 0-3.95.97-3.95 3 0 2.048 1.7 2.505 3.44 2.834 1.322.256 2.55.348 2.55 1.244 0 .658-.642 1.078-1.776 1.078-1.153 0-1.947-.475-2.116-1.554h-2.382c.151 1.993 1.72 3.31 4.536 3.31zm13.84-.274V9.2h-2.57v5.412c0 1.243-.737 2.12-1.947 2.12-1.096 0-1.606-.602-1.606-1.7V9.2h-2.55v6.254c0 2.048 1.209 3.383 3.364 3.383 1.36 0 2.116-.494 2.778-1.353h.056v1.097h2.476zm1.662 0h2.571v-5.45c0-1.243.699-2.048 1.739-2.048.945 0 1.492.549 1.492 1.61v5.887h2.571V13.13c0-1.243.661-2.048 1.738-2.048.946 0 1.493.549 1.493 1.61v5.887h2.571v-6.308c0-2.048-1.153-3.328-3.194-3.328-1.229 0-2.249.622-2.911 1.646h-.037c-.473-.988-1.456-1.646-2.684-1.646-1.342 0-2.287.658-2.816 1.518h-.057V9.199h-2.476v9.38zM.5 18.58h2.57V5.505H.5V18.58zm8.855.274c3.005 0 5.064-2.158 5.064-4.956 0-2.797-2.06-4.955-5.064-4.955-3.005 0-5.065 2.158-5.065 4.955 0 2.798 2.06 4.956 5.065 4.956zm0-1.902c-1.588 0-2.457-1.225-2.457-3.054 0-1.828.87-3.072 2.457-3.072 1.568 0 2.457 1.244 2.457 3.072 0 1.829-.889 3.054-2.457 3.054zm10.53 4.828c1.437 0 2.684-.33 3.496-1.061.719-.64 1.153-1.536 1.153-2.853V9.2H22.06v.987h-.038c-.586-.786-1.474-1.243-2.684-1.243-2.456 0-4.195 1.792-4.195 4.59 0 2.834 2.116 4.48 4.27 4.48 1.23 0 1.966-.476 2.533-1.098h.057v1.024c0 1.28-.7 1.957-2.154 1.957-1.191 0-1.74-.457-1.947-1.042H15.35c.264 1.828 1.89 2.925 4.535 2.925zm-.038-5.76c-1.322 0-2.192-.933-2.192-2.524 0-1.572.87-2.56 2.174-2.56 1.55 0 2.305 1.17 2.305 2.542 0 1.39-.661 2.542-2.287 2.542zm10.935 2.834c3.005 0 5.065-2.158 5.065-4.956 0-2.797-2.06-4.955-5.065-4.955-3.005 0-5.065 2.158-5.065 4.955 0 2.798 2.06 4.956 5.065 4.956zm0-1.902c-1.588 0-2.457-1.225-2.457-3.054 0-1.828.87-3.072 2.457-3.072 1.568 0 2.457 1.244 2.457 3.072 0 1.829-.889 3.054-2.457 3.054z"/><path fill-rule="evenodd" d="M51.434 2.833c6.088 0 11.024 4.776 11.024 10.667s-4.936 10.667-11.024 10.667c-6.089 0-11.024-4.776-11.024-10.667 0-5.89 4.935-10.666 11.024-10.666zm-.399.799c-1.257.17-2.455 1.149-3.385 2.784-.27.474-.513.999-.725 1.564a19.026 19.026 0 0 1 4.11-.516V3.632zm-5.041 4.605a12.1 12.1 0 0 1 .958-2.192c.46-.811 1.008-1.511 1.624-2.049-3.35.942-5.992 3.497-6.965 6.74.556-.597 1.28-1.126 2.117-1.572a12.96 12.96 0 0 1 2.266-.927zm-.265.901a17.298 17.298 0 0 0-.534 3.977h-3.96c.176-1.217 1.187-2.376 2.877-3.275a11.62 11.62 0 0 1 1.617-.702zm.263 3.977c.033-1.54.262-2.984.64-4.26a17.89 17.89 0 0 1 4.403-.62v1.666c-.593 1.47-1.803 2.64-3.322 3.214h-1.72zm-.797.77h-3.96c.176 1.218 1.187 2.376 2.877 3.276.49.26 1.032.496 1.617.701a17.298 17.298 0 0 1-.534-3.976zm1.438 4.26a16.286 16.286 0 0 1-.64-4.26h1.72c1.519.575 2.729 1.745 3.322 3.215v1.665a17.894 17.894 0 0 1-4.402-.62zm-.64.619a12.965 12.965 0 0 1-2.265-.928c-.838-.445-1.561-.975-2.117-1.57.973 3.241 3.614 5.797 6.965 6.738-.616-.537-1.163-1.238-1.624-2.048a12.1 12.1 0 0 1-.958-2.192zm5.042 4.605c-1.257-.172-2.455-1.15-3.385-2.785-.27-.474-.513-.998-.725-1.564a19.05 19.05 0 0 0 4.11.517v3.832zm3.256-.365c.617-.537 1.163-1.238 1.624-2.048.372-.655.695-1.392.959-2.192a12.972 12.972 0 0 0 2.265-.928c.838-.445 1.562-.975 2.117-1.57-.973 3.241-3.614 5.797-6.965 6.738zm1.651-3.984c-.212.566-.456 1.09-.725 1.564-.93 1.636-2.127 2.613-3.385 2.785v-3.832a19.033 19.033 0 0 0 4.11-.517zm1.196-1.158a11.65 11.65 0 0 0 1.617-.701c1.69-.9 2.7-2.058 2.878-3.275h-3.96a17.32 17.32 0 0 1-.535 3.976zm-.263-3.976a16.273 16.273 0 0 1-.64 4.26 17.89 17.89 0 0 1-4.403.62V17.1c.593-1.47 1.803-2.641 3.323-3.215h1.72zm.797-.771h3.96c-.176-1.217-1.186-2.376-2.877-3.275a11.62 11.62 0 0 0-1.617-.702 17.32 17.32 0 0 1 .534 3.977zm-1.438-4.26c.38 1.276.608 2.72.641 4.26h-1.72c-1.52-.574-2.73-1.746-3.323-3.216V8.235c1.59.032 3.083.253 4.402.62zm.64-.618c.827.255 1.588.567 2.265.927.838.446 1.562.975 2.117 1.571-.973-3.242-3.614-5.797-6.965-6.739.617.538 1.163 1.238 1.624 2.049.372.654.695 1.39.959 2.192zm-5.042-4.605c1.258.17 2.455 1.149 3.385 2.784.27.474.513.999.725 1.564a19.031 19.031 0 0 0-4.11-.516V3.632z" clip-rule="evenodd"/></g><defs><clipPath id="a"><path fill="#fff" d="M.5 0h128v27H.5z"/></clipPath></defs></svg>