<svg xmlns="http://www.w3.org/2000/svg" width="48" height="48" fill="none"><g clip-path="url(#a)"><mask id="b" width="48" height="48" x="0" y="0" maskUnits="userSpaceOnUse" style="mask-type:luminance"><path fill="#fff" d="M48 0H0v48h48V0z"/></mask><g mask="url(#b)"><path fill="url(#c)" fill-rule="evenodd" d="M24.093 22.045C23.098 9.705 12.768 0 .17 0c0 12.538 9.615 22.83 21.874 23.907C9.705 24.902 0 35.232 0 47.83c12.538 0 22.83-9.615 23.907-21.874C24.902 38.295 35.232 48 47.83 48c0-12.538-9.615-22.83-21.874-23.907C38.295 23.098 48 12.768 48 .17c-12.538 0-22.83 9.615-23.907 21.874zM23.999 24z" clip-rule="evenodd"/></g></g><defs><linearGradient id="c" x1="24" x2="24" y1="0" y2="48" gradientUnits="userSpaceOnUse"><stop stop-color="#49235F"/><stop offset="1" stop-color="#D387FF"/></linearGradient><clipPath id="a"><path fill="#fff" d="M0 0h48v48H0z"/></clipPath></defs></svg>