<svg xmlns="http://www.w3.org/2000/svg" width="48" height="48" fill="none"><g clip-path="url(#a)"><mask id="b" width="48" height="48" x="0" y="0" maskUnits="userSpaceOnUse" style="mask-type:luminance"><path fill="#fff" d="M48 0H0v48h48V0z"/></mask><g mask="url(#b)"><path fill="url(#c)" d="M39.831 32.169a3.36 3.36 0 0 1-4.752 0l-5.793-5.793a3.36 3.36 0 0 1 0-4.752l5.793-5.793a3.36 3.36 0 0 1 4.752 0l5.793 5.793a3.36 3.36 0 0 1 0 4.752l-5.793 5.793zm-26.91 0a3.36 3.36 0 0 1-4.752 0l-5.793-5.793a3.36 3.36 0 0 1 0-4.752l5.793-5.793a3.36 3.36 0 0 1 4.752 0l5.793 5.793a3.36 3.36 0 0 1 0 4.752l-5.793 5.793zm13.455 13.455a3.36 3.36 0 0 1-4.752 0l-5.793-5.793a3.36 3.36 0 0 1 0-4.752l5.793-5.793a3.36 3.36 0 0 1 4.752 0l5.793 5.793a3.36 3.36 0 0 1 0 4.752l-5.793 5.793zm0-26.91a3.36 3.36 0 0 1-4.752 0l-5.793-5.794a3.36 3.36 0 0 1 0-4.751l5.793-5.793a3.36 3.36 0 0 1 4.752 0l5.793 5.793a3.36 3.36 0 0 1 0 4.751l-5.793 5.793z"/></g></g><defs><linearGradient id="c" x1="24" x2="24" y1="1.392" y2="46.608" gradientUnits="userSpaceOnUse"><stop stop-color="#49235F"/><stop offset="1" stop-color="#D387FF"/></linearGradient><clipPath id="a"><path fill="#fff" d="M0 0h48v48H0z"/></clipPath></defs></svg>