<svg xmlns="http://www.w3.org/2000/svg" width="48" height="48" fill="none"><g clip-path="url(#a)"><mask id="b" width="48" height="48" x="0" y="0" maskUnits="userSpaceOnUse" style="mask-type:luminance"><path fill="#fff" d="M48 0H0v48h48V0z"/></mask><g mask="url(#b)"><path fill="url(#c)" fill-rule="evenodd" d="M35.129 8.301a5.957 5.957 0 0 0 .455-2.296 5.998 5.998 0 0 0-10.23-4.254l-1.353 1.26-1.345-1.256a6 6 0 1 0-8.48 8.49l9.235 9.372a.83.83 0 0 0 1.18 0l9.235-9.372a5.957 5.957 0 0 0 1.303-1.944zM12.871 39.7a5.96 5.96 0 0 0-.455 2.296 5.998 5.998 0 0 0 10.23 4.254l1.353-1.26 1.345 1.256a6 6 0 1 0 8.48-8.49l-9.235-9.372a.821.821 0 0 0-.59-.247.825.825 0 0 0-.59.247l-9.234 9.372a5.962 5.962 0 0 0-1.304 1.944zm29.124-4.115a5.963 5.963 0 0 1-4.24-1.758l-9.372-9.235a.826.826 0 0 1 0-1.18l9.372-9.235a6 6 0 0 1 8.49 8.48l-1.256 1.345 1.26 1.354a5.998 5.998 0 0 1-4.254 10.229zM8.3 12.87a5.96 5.96 0 0 0-2.296-.455 5.999 5.999 0 0 0-4.254 10.23l1.26 1.353-1.256 1.344a6 6 0 0 0 8.49 8.48l9.372-9.235a.83.83 0 0 0 0-1.178l-9.372-9.236A5.961 5.961 0 0 0 8.3 12.87z" clip-rule="evenodd"/></g></g><defs><linearGradient id="c" x1="24" x2="24" y1="0" y2="48" gradientUnits="userSpaceOnUse"><stop stop-color="#49235F"/><stop offset="1" stop-color="#D387FF"/></linearGradient><clipPath id="a"><path fill="#fff" d="M0 0h48v48H0z"/></clipPath></defs></svg>