<svg xmlns="http://www.w3.org/2000/svg" width="48" height="48" fill="none"><g clip-path="url(#a)"><mask id="b" width="48" height="48" x="0" y="0" maskUnits="userSpaceOnUse" style="mask-type:luminance"><path fill="#fff" d="M48 0H0v48h48V0z"/></mask><g mask="url(#b)"><path fill="url(#c)" fill-rule="evenodd" d="M13 24c6.075 0 11-4.925 11-11 0 6.075 4.925 11 11 11-6.075 0-11 4.925-11 11 0-6.075-4.925-11-11-11zm0 0C6.925 24 2 28.925 2 35s4.925 11 11 11 11-4.925 11-11c0 6.075 4.925 11 11 11s11-4.925 11-11-4.925-11-11-11c6.075 0 11-4.925 11-11S41.075 2 35 2 24 6.925 24 13c0-6.075-4.925-11-11-11S2 6.925 2 13s4.925 11 11 11z" clip-rule="evenodd"/></g></g><defs><linearGradient id="c" x1="24" x2="24" y1="2" y2="46" gradientUnits="userSpaceOnUse"><stop stop-color="#49235F"/><stop offset="1" stop-color="#D387FF"/></linearGradient><clipPath id="a"><path fill="#fff" d="M0 0h48v48H0z"/></clipPath></defs></svg>