<svg xmlns="http://www.w3.org/2000/svg" width="48" height="48" fill="none"><g clip-path="url(#a)"><mask id="b" width="48" height="48" x="0" y="0" maskUnits="userSpaceOnUse" style="mask-type:luminance"><path fill="#fff" d="M0 0v48h48V0H0z"/></mask><g mask="url(#b)"><path fill="url(#c)" fill-rule="evenodd" d="M24 0c13.255 0 24 10.745 24 24S37.255 48 24 48 0 37.255 0 24 10.745 0 24 0zm0 0c9.146 0 16.56 7.414 16.56 16.56 0 9.146-7.414 16.56-16.56 16.56-9.146 0-16.56-7.414-16.56-16.56C7.44 7.414 14.854 0 24 0zm7.68 16.56a7.68 7.68 0 1 0-15.36 0 7.68 7.68 0 0 0 15.36 0z" clip-rule="evenodd"/></g></g><defs><linearGradient id="c" x1="24" x2="24" y1="0" y2="48" gradientUnits="userSpaceOnUse"><stop stop-color="#49235F"/><stop offset="1" stop-color="#D387FF"/></linearGradient><clipPath id="a"><path fill="#fff" d="M0 0h48v48H0z"/></clipPath></defs></svg>