<svg xmlns="http://www.w3.org/2000/svg" width="48" height="48" fill="none"><g clip-path="url(#a)"><mask id="b" width="48" height="48" x="0" y="0" maskUnits="userSpaceOnUse" style="mask-type:luminance"><path fill="#fff" d="M48 0H0v48h48V0z"/></mask><g mask="url(#b)"><path fill="url(#c)" fill-rule="evenodd" d="M24 24s3-8.034 3-13.714S25.657 0 24 0s-3 4.605-3 10.286C21 15.966 24 24 24 24zm0 0s3.56 7.802 7.576 11.819c4.017 4.017 8.223 6.323 9.395 5.152 1.171-1.172-1.135-5.378-5.152-9.395C31.802 27.56 24 24 24 24zm0 0s8.034-3 13.714-3S48 22.343 48 24s-4.605 3-10.286 3C32.034 27 24 24 24 24zm0 0s-7.802 3.56-11.819 7.576C8.164 35.593 5.858 39.8 7.03 40.971c1.172 1.171 5.378-1.135 9.395-5.152C20.44 31.802 24 24 24 24zm0 0c.007.018 3 8.04 3 13.714C27 43.394 25.657 48 24 48s-3-4.605-3-10.286C21 32.034 24 24 24 24zm0 0s-8.034-3-13.714-3S0 22.343 0 24s4.605 3 10.286 3C15.966 27 24 24 24 24zm0 0s7.802-3.56 11.819-7.576c4.017-4.017 6.323-8.223 5.152-9.395-1.172-1.171-5.378 1.135-9.395 5.152C27.56 16.198 24 24 24 24zm-7.576-11.819C20.44 16.198 24 24 24 24s-7.802-3.56-11.819-7.576C8.164 12.407 5.858 8.2 7.03 7.029c1.172-1.171 5.378 1.135 9.395 5.152z" clip-rule="evenodd"/></g></g><defs><linearGradient id="c" x1="24" x2="24" y1="0" y2="48" gradientUnits="userSpaceOnUse"><stop stop-color="#49235F"/><stop offset="1" stop-color="#D387FF"/></linearGradient><clipPath id="a"><path fill="#fff" d="M0 0h48v48H0z"/></clipPath></defs></svg>