<svg xmlns="http://www.w3.org/2000/svg" width="48" height="48" fill="none"><path fill="url(#a)" fill-rule="evenodd" d="M44.394 19.211c-2.163 2.315-5.71 4.076-9.313 4.789 3.604.713 7.15 2.474 9.313 4.789l2.456 2.627-3.531.683c-3.111.6-7.015-.059-10.35-1.6 2.497 2.694 4.33 6.204 4.72 9.348l.443 3.57-3.258-1.525c-2.87-1.342-5.64-4.17-7.432-7.378.435 3.648-.144 7.565-1.677 10.338L24.025 48l-1.74-3.148c-1.533-2.773-2.112-6.69-1.676-10.338-1.792 3.208-4.563 6.036-7.433 7.378l-3.258 1.524.443-3.57c.39-3.143 2.223-6.653 4.72-9.348-3.334 1.542-7.239 2.201-10.35 1.6l-3.531-.68 2.456-2.628c2.164-2.316 5.71-4.077 9.314-4.79-3.604-.713-7.15-2.474-9.314-4.789L1.2 16.584l3.532-.683c3.11-.6 7.015.059 10.35 1.6-2.498-2.694-4.331-6.204-4.721-9.348l-.443-3.57 3.259 1.525c2.87 1.342 5.64 4.17 7.432 7.378-.436-3.648.143-7.565 1.676-10.338L24.025 0l1.74 3.148c1.533 2.773 2.112 6.69 1.677 10.338 1.791-3.208 4.562-6.036 7.432-7.378l3.258-1.524-.442 3.57c-.39 3.143-2.224 6.653-4.72 9.348 3.334-1.542 7.238-2.201 10.349-1.6l3.532.682-2.457 2.627zm-24.893 9.276a6.317 6.317 0 1 0 8.933-8.933 6.317 6.317 0 0 0-8.933 8.933z" clip-rule="evenodd"/><defs><linearGradient id="a" x1="24.025" x2="24.025" y1="0" y2="48" gradientUnits="userSpaceOnUse"><stop stop-color="#49235F"/><stop offset="1" stop-color="#D387FF"/></linearGradient></defs></svg>