<svg xmlns="http://www.w3.org/2000/svg" width="20" height="20" fill="none"><path fill="#D387FF" fill-rule="evenodd" d="M16.482 18.333H3.519a1.852 1.852 0 0 1-1.852-1.852V3.518c0-1.022.829-1.851 1.852-1.851h12.963c1.022 0 1.851.829 1.851 1.851v12.963a1.852 1.852 0 0 1-1.851 1.852zm-3.046-2.5h2.397V10.91c0-2.084-1.18-3.091-2.83-3.091-1.651 0-2.346 1.285-2.346 1.285V8.056h-2.31v7.777h2.31V11.75c0-1.094.504-1.745 1.468-1.745.886 0 1.311.626 1.311 1.745v4.083zM4.166 5.602a1.43 1.43 0 0 0 1.425 1.435 1.43 1.43 0 0 0 1.424-1.435 1.43 1.43 0 0 0-1.424-1.435 1.43 1.43 0 0 0-1.424 1.435zm2.641 10.231H4.398V8.056h2.41v7.777z" clip-rule="evenodd"/></svg>