<svg xmlns="http://www.w3.org/2000/svg" width="129" height="27" fill="none"><g clip-path="url(#a)"><path fill="#D387FF" fill-opacity=".6" d="M.5 23h20.043V3H.5v20zm16.186-11.924H12.45V6.85h4.236v4.226zM4.357 6.85h4.238v8.074h8.09v4.227H4.358V6.85zM33.595 3c-1.982 0-3.92.586-5.567 1.685a10.005 10.005 0 0 0-3.692 4.488 9.98 9.98 0 0 0 2.173 10.898 10.042 10.042 0 0 0 10.921 2.168 10.018 10.018 0 0 0 4.498-3.683A9.985 9.985 0 0 0 43.617 13a10.001 10.001 0 0 0-2.939-7.068A10.044 10.044 0 0 0 33.595 3zm0 16.15c-1.219 0-2.41-.36-3.424-1.036a6.139 6.139 0 0 1-.934-9.463 6.168 6.168 0 0 1 6.717-1.333 6.16 6.16 0 0 1 2.766 2.265A6.14 6.14 0 0 1 39.76 13a6.153 6.153 0 0 1-1.81 4.346 6.18 6.18 0 0 1-4.355 1.805zM79.48 3c-1.982 0-3.92.586-5.568 1.685a10.004 10.004 0 0 0-3.691 4.488 9.98 9.98 0 0 0 2.172 10.898 10.043 10.043 0 0 0 10.922 2.168 10.017 10.017 0 0 0 4.497-3.683A9.98 9.98 0 0 0 89.5 13a10 10 0 0 0-2.938-7.067A10.045 10.045 0 0 0 79.479 3zm0 16.15c-1.219 0-2.41-.36-3.424-1.036a6.138 6.138 0 0 1-.935-9.463 6.169 6.169 0 0 1 6.717-1.333A6.146 6.146 0 0 1 85.643 13a6.151 6.151 0 0 1-1.809 4.346 6.179 6.179 0 0 1-4.355 1.805zM56.537 3c-1.982 0-3.92.586-5.568 1.685a10.004 10.004 0 0 0-3.691 4.488 9.98 9.98 0 0 0 2.172 10.898 10.042 10.042 0 0 0 10.921 2.168 10.017 10.017 0 0 0 4.498-3.683A9.985 9.985 0 0 0 66.56 13a10 10 0 0 0-2.94-7.068A10.044 10.044 0 0 0 56.538 3zm0 16.15a6.175 6.175 0 0 1-3.219-.903 6.14 6.14 0 0 1-1.78-8.851A6.176 6.176 0 0 1 60.52 8.31a6.15 6.15 0 0 1 1.869 2.767h-5.851v3.848h5.851a6.16 6.16 0 0 1-2.241 3.056 6.182 6.182 0 0 1-3.61 1.17z"/></g><defs><clipPath id="a"><path fill="#fff" d="M.5 0h128v27H.5z"/></clipPath></defs></svg>