<svg xmlns="http://www.w3.org/2000/svg" width="1000" height="1001" fill="none"><circle cx="400" cy="400" r="360" stroke="url(#a)" stroke-width="80" transform="matrix(-1 0 0 1 900 100.125)"/><mask id="d" fill="#fff"><path d="M100 500.125a399.994 399.994 0 0 1 117.157-282.843A400.01 400.01 0 0 1 500 100.125a399.994 399.994 0 0 1 282.843 117.157A400.01 400.01 0 0 1 900 500.125H676a175.993 175.993 0 0 0-51.549-124.451 175.998 175.998 0 0 0-248.902 0A175.998 175.998 0 0 0 324 500.125H100z"/></mask><path fill="url(#b)" stroke="url(#c)" stroke-width="6.25" d="M100 500.125a399.994 399.994 0 0 1 117.157-282.843A400.01 400.01 0 0 1 500 100.125a399.994 399.994 0 0 1 282.843 117.157A400.01 400.01 0 0 1 900 500.125H676a175.993 175.993 0 0 0-51.549-124.451 175.998 175.998 0 0 0-248.902 0A175.998 175.998 0 0 0 324 500.125H100z" mask="url(#d)"/><g filter="url(#e)"><circle cx="500" cy="500.125" r="210" stroke="url(#f)" stroke-width="80" transform="rotate(-180 500 500.125)"/></g><path fill="url(#g)" d="M750 500.125a249.999 249.999 0 0 1-426.777 176.777A249.999 249.999 0 0 1 250 500.125h140a110.001 110.001 0 0 0 187.782 77.782A110.013 110.013 0 0 0 610 500.125h140z"/><defs><linearGradient id="a" x1="-125" x2="868.75" y1="400" y2="800" gradientUnits="userSpaceOnUse"><stop stop-color="#B16FD8"/><stop offset="1" stop-color="#2F1941"/></linearGradient><linearGradient id="b" x1="250" x2="975" y1="150.125" y2="656.375" gradientUnits="userSpaceOnUse"><stop stop-color="#B16FD8"/><stop offset="1" stop-color="#2F1941"/></linearGradient><linearGradient id="c" x1="500" x2="500" y1="100.125" y2="900.125" gradientUnits="userSpaceOnUse"><stop stop-color="#D387FF" stop-opacity=".6"/><stop offset="1" stop-color="#D387FF" stop-opacity="0"/></linearGradient><linearGradient id="f" x1="250" x2="781.25" y1="512.625" y2="693.875" gradientUnits="userSpaceOnUse"><stop stop-color="#B16FD8"/><stop offset="1" stop-color="#2F1941"/></linearGradient><linearGradient id="g" x1="275" x2="675" y1="643.875" y2="418.875" gradientUnits="userSpaceOnUse"><stop stop-color="#B16FD8"/><stop offset="1" stop-color="#2F1941"/></linearGradient><filter id="e" width="500" height="540" x="250" y="250.125" color-interpolation-filters="sRGB" filterUnits="userSpaceOnUse"><feFlood flood-opacity="0" result="BackgroundImageFix"/><feBlend in="SourceGraphic" in2="BackgroundImageFix" result="shape"/><feColorMatrix in="SourceAlpha" result="hardAlpha" values="0 0 0 0 0 0 0 0 0 0 0 0 0 0 0 0 0 0 127 0"/><feOffset dy="40"/><feGaussianBlur stdDeviation="20"/><feComposite in2="hardAlpha" k2="-1" k3="1" operator="arithmetic"/><feColorMatrix values="0 0 0 0 0 0 0 0 0 0 0 0 0 0 0 0 0 0 0.25 0"/><feBlend in2="shape" result="effect1_innerShadow_2048_5778"/></filter></defs></svg>