<svg xmlns="http://www.w3.org/2000/svg" width="128" height="27" fill="none"><path fill="#D387FF" fill-opacity=".6" fill-rule="evenodd" d="m12.602 3.955 1.535-2.822L18.488 3.8l-1.534 2.822c-.27.495.134 1.097.662.988l2.941-.602.952 5.238-2.94.602c-4.757.974-8.39-4.44-5.967-8.893zM9.897 23.046 8.19 25.868l-4.836-2.667 1.706-2.822c.3-.495-.149-1.097-.737-.989l-3.267.602L0 14.755l3.267-.602c5.286-.974 9.32 4.439 6.63 8.893zM9.896 3.955 8.19 1.133 3.355 3.8 5.06 6.622c.3.495-.148 1.097-.736.988l-3.268-.602L0 12.246l3.267.602c5.286.974 9.321-4.44 6.63-8.893h-.001zm2.707 19.091 1.534 2.822 4.352-2.667-1.535-2.822c-.269-.495.134-1.097.663-.989l2.94.602.952-5.237-2.94-.602c-4.758-.974-8.389 4.439-5.967 8.893z" clip-rule="evenodd"/><path fill="#D387FF" fill-opacity=".6" d="M101.389 19.87v-5.369c0-.744.169-1.411.507-2.002a3.69 3.69 0 0 1 1.488-1.418c.643-.342 1.407-.513 2.294-.513a4.42 4.42 0 0 1 1.226.159c.373.095.712.23 1.015.407.315.166.583.367.806.603h.035a3.42 3.42 0 0 1 .805-.603 4.187 4.187 0 0 1 1.033-.407 4.656 4.656 0 0 1 1.243-.16c.887 0 1.652.171 2.294.514a3.692 3.692 0 0 1 1.488 1.418c.35.59.525 1.258.525 2.002v5.37h-2.731V14.59c0-.295-.076-.561-.228-.797a1.67 1.67 0 0 0-.578-.603 1.549 1.549 0 0 0-.84-.23c-.315 0-.601.077-.858.23-.24.148-.439.356-.578.603-.141.24-.214.517-.21.797v5.28h-2.713v-5.28a1.45 1.45 0 0 0-.228-.797 1.621 1.621 0 0 0-.596-.603 1.549 1.549 0 0 0-.84-.23c-.315 0-.601.077-.858.23-.24.148-.439.356-.578.603a1.536 1.536 0 0 0-.21.797v5.28h-2.713zm-5.936.213c-.922 0-1.722-.177-2.398-.532a3.964 3.964 0 0 1-1.541-1.47 4.069 4.069 0 0 1-.543-2.074V10.78h2.714v5.157c0 .319.075.614.227.886.152.26.356.472.613.638.268.153.572.23.91.23.327 0 .619-.077.876-.23.268-.166.479-.379.63-.638.152-.272.228-.567.228-.886V10.78h2.714v5.227a4.18 4.18 0 0 1-.526 2.074c-.35.614-.857 1.105-1.523 1.47-.654.355-1.448.532-2.381.532zm-13.224-.213v-2.179h4.325a.687.687 0 0 0 .315-.071.709.709 0 0 0 .227-.23.592.592 0 0 0-.227-.833.578.578 0 0 0-.315-.089h-1.576a4.3 4.3 0 0 1-1.593-.283 2.535 2.535 0 0 1-1.121-.922c-.268-.425-.402-.974-.402-1.648 0-.52.122-.992.367-1.417.255-.424.61-.777 1.033-1.029a2.835 2.835 0 0 1 1.453-.39h4.325v2.198h-3.905a.6.6 0 0 0-.42.16.53.53 0 0 0-.157.39c0 .165.053.307.157.425a.602.602 0 0 0 .42.16h1.541c.654 0 1.214.1 1.681.3.479.19.846.497 1.103.922.269.426.403.974.403 1.648a2.72 2.72 0 0 1-.403 1.453 2.895 2.895 0 0 1-1.05 1.046c-.432.26-.922.39-1.471.39h-4.71zm-5.912-9.302c.758 0 1.43.123 2.013.372a3.998 3.998 0 0 1 1.506 1.027c.425.446.753.977.963 1.56.221.59.332 1.246.332 1.967 0 .897-.186 1.695-.56 2.392a4.068 4.068 0 0 1-1.505 1.612c-.643.39-1.39.585-2.242.585a3.72 3.72 0 0 1-1.033-.141 3.294 3.294 0 0 1-.875-.408 2.45 2.45 0 0 1-.648-.656h-.053v4.838h-2.713v-8.223c0-1.004.198-1.873.595-2.605a4.186 4.186 0 0 1 1.68-1.701c.725-.413 1.57-.62 2.54-.62zm0 2.374c-.42 0-.788.106-1.103.319-.304.2-.538.484-.701.85a2.85 2.85 0 0 0-.245 1.205c0 .45.082.851.245 1.205.163.355.397.638.7.851.316.201.684.302 1.104.302.42 0 .781-.102 1.085-.302.305-.214.547-.508.7-.85a2.69 2.69 0 0 0 .263-1.206c0-.448-.088-.85-.262-1.204a1.93 1.93 0 0 0-.701-.851c-.304-.213-.665-.32-1.085-.32zm-8.94 6.928v-9.09h2.732v9.09h-2.731zm1.366-10.118c-.432 0-.805-.16-1.12-.478a1.56 1.56 0 0 1-.473-1.134c0-.438.158-.815.473-1.134.315-.331.688-.497 1.12-.497.432 0 .806.166 1.121.497.315.319.472.696.472 1.134 0 .437-.157.814-.472 1.134a1.523 1.523 0 0 1-1.12.478zm-7.302 10.331c-.921 0-1.75-.206-2.486-.62a4.682 4.682 0 0 1-1.75-1.701c-.42-.72-.63-1.53-.63-2.428 0-.91.21-1.719.63-2.428a4.683 4.683 0 0 1 1.75-1.7c.736-.426 1.565-.638 2.486-.638.923 0 1.745.212 2.47.638a4.55 4.55 0 0 1 1.732 1.7c.432.71.648 1.518.648 2.428 0 .898-.216 1.707-.648 2.428a4.549 4.549 0 0 1-1.733 1.7c-.735.415-1.558.621-2.469.621zm0-2.392c.432 0 .806-.107 1.121-.319.316-.212.57-.506.735-.85a2.68 2.68 0 0 0 .263-1.206c0-.437-.087-.832-.263-1.187a2.154 2.154 0 0 0-.735-.85c-.315-.213-.689-.32-1.12-.32-.432 0-.812.107-1.138.32-.316.212-.57.506-.736.85-.178.37-.268.777-.262 1.188 0 .448.087.85.262 1.204.166.345.42.639.736.851.326.212.706.32 1.137.32zm-13.687 5.777v-2.357h4.482a.59.59 0 0 0 .438-.177.524.524 0 0 0 .175-.408v-2.002h-.052c-.222.26-.475.493-.753.69-.257.19-.55.332-.876.426a3.715 3.715 0 0 1-1.068.142c-.793 0-1.506-.19-2.136-.567a4.157 4.157 0 0 1-1.47-1.613c-.35-.685-.526-1.465-.526-2.339 0-.862.181-1.648.543-2.357a4.274 4.274 0 0 1 1.629-1.7c.711-.426 1.581-.638 2.608-.638.98 0 1.827.206 2.539.62.715.393 1.3.99 1.68 1.718.398.733.596 1.595.596 2.588v5.316c0 .814-.239 1.459-.718 1.931-.466.485-1.114.727-1.943.727h-5.148zm3.012-5.99c.42 0 .782-.094 1.086-.283a2 2 0 0 0 .7-.797 2.46 2.46 0 0 0 .245-1.1c0-.425-.082-.814-.245-1.169a1.954 1.954 0 0 0-.701-.833c-.303-.213-.665-.319-1.086-.319-.408 0-.77.1-1.085.302a1.97 1.97 0 0 0-.7.814 2.65 2.65 0 0 0-.245 1.152c0 .414.081.792.245 1.135.163.33.397.596.7.797.315.2.677.301 1.086.301zm-10.314 2.605c-.922 0-1.75-.206-2.486-.62a4.68 4.68 0 0 1-1.75-1.701c-.42-.72-.631-1.53-.631-2.428 0-.91.21-1.719.63-2.428a4.68 4.68 0 0 1 1.751-1.7c.736-.426 1.564-.638 2.486-.638.922 0 1.745.212 2.469.638.72.397 1.318.985 1.733 1.7.432.71.648 1.518.648 2.428 0 .898-.216 1.707-.648 2.428a4.551 4.551 0 0 1-1.733 1.7c-.735.415-1.558.621-2.469.621zm0-2.392c.432 0 .805-.107 1.12-.319.316-.213.57-.506.736-.85.175-.355.262-.757.262-1.206a2.65 2.65 0 0 0-.262-1.187 2.157 2.157 0 0 0-.735-.85c-.315-.213-.69-.32-1.12-.32-.433 0-.812.107-1.139.32a2.152 2.152 0 0 0-.735.85 2.64 2.64 0 0 0-.263 1.188c0 .448.088.85.263 1.204.166.345.42.639.735.851.327.212.706.32 1.138.32zm-8.691 2.18c-.759 0-1.424-.171-1.996-.514a3.62 3.62 0 0 1-1.33-1.364 3.803 3.803 0 0 1-.473-1.879V7.466h2.94v8.86c0 .284.1.532.299.745a.966.966 0 0 0 .735.319h3.239v2.48H31.76z"/></svg>