<svg xmlns="http://www.w3.org/2000/svg" width="48" height="48" fill="none"><mask id="a" width="36" height="36" x="6" y="6" maskUnits="userSpaceOnUse" style="mask-type:luminance"><path fill="#fff" d="M42 6H6v36h36V6z"/></mask><g mask="url(#a)"><path fill="url(#b)" fill-rule="evenodd" d="M15.129 6h-9v9a9.002 9.002 0 0 0 7.856 8.928A9.002 9.002 0 0 0 6 32.871v9h9a9.002 9.002 0 0 0 8.928-7.856A9.001 9.001 0 0 0 32.871 42h9v-9a9.002 9.002 0 0 0-7.856-8.928A9.001 9.001 0 0 0 42 15.129v-9h-9a9.002 9.002 0 0 0-8.928 7.856A9.001 9.001 0 0 0 15.129 6z" clip-rule="evenodd"/></g><defs><linearGradient id="b" x1="24" x2="24" y1="6" y2="42" gradientUnits="userSpaceOnUse"><stop stop-color="#49235F"/><stop offset="1" stop-color="#D387FF"/></linearGradient></defs></svg>