<svg xmlns="http://www.w3.org/2000/svg" width="1000" height="1000" fill="none"><rect width="396.875" height="396.875" y="1.563" fill="url(#a)" stroke="url(#b)" stroke-width="3.125" rx="23.438" transform="matrix(.86603 .5 -.86603 .5 497.763 460.781)"/><rect width="396.875" height="396.875" y="1.563" fill="url(#c)" stroke="url(#d)" stroke-width="3.125" rx="23.438" transform="matrix(.86603 .5 -.86603 .5 497.763 380.782)"/><rect width="396.875" height="396.875" y="1.563" fill="url(#e)" stroke="url(#f)" stroke-width="3.125" rx="23.438" transform="matrix(.86603 .5 -.86603 .5 497.763 300.781)"/><rect width="396.875" height="396.875" y="1.563" fill="url(#g)" stroke="url(#h)" stroke-width="3.125" rx="23.438" transform="matrix(.86603 .5 -.86603 .5 497.763 220.782)"/><rect width="396.875" height="396.875" y="1.563" fill="url(#i)" stroke="url(#j)" stroke-width="3.125" rx="23.438" transform="matrix(.86603 .5 -.86603 .5 497.763 140.781)"/><defs><linearGradient id="a" x1="200" x2="200" y1="0" y2="400" gradientUnits="userSpaceOnUse"><stop offset=".09" stop-color="#49235F"/><stop offset="1" stop-color="#D387FF"/></linearGradient><linearGradient id="b" x1="200" x2="200" y1="0" y2="400" gradientUnits="userSpaceOnUse"><stop stop-color="#D387FF" stop-opacity=".6"/><stop offset="1" stop-color="#D387FF" stop-opacity="0"/></linearGradient><linearGradient id="c" x1="200" x2="200" y1="0" y2="400" gradientUnits="userSpaceOnUse"><stop offset=".09" stop-color="#49235F"/><stop offset="1" stop-color="#D387FF"/></linearGradient><linearGradient id="d" x1="200" x2="200" y1="0" y2="400" gradientUnits="userSpaceOnUse"><stop stop-color="#D387FF" stop-opacity=".6"/><stop offset="1" stop-color="#D387FF" stop-opacity="0"/></linearGradient><linearGradient id="e" x1="200" x2="200" y1="0" y2="400" gradientUnits="userSpaceOnUse"><stop offset=".09" stop-color="#49235F"/><stop offset="1" stop-color="#D387FF"/></linearGradient><linearGradient id="f" x1="200" x2="200" y1="0" y2="400" gradientUnits="userSpaceOnUse"><stop stop-color="#D387FF" stop-opacity=".6"/><stop offset="1" stop-color="#D387FF" stop-opacity="0"/></linearGradient><linearGradient id="g" x1="200" x2="200" y1="0" y2="400" gradientUnits="userSpaceOnUse"><stop stop-color="#49235F"/><stop offset="1" stop-color="#D387FF"/></linearGradient><linearGradient id="h" x1="200" x2="200" y1="0" y2="400" gradientUnits="userSpaceOnUse"><stop stop-color="#D387FF" stop-opacity=".6"/><stop offset="1" stop-color="#D387FF" stop-opacity="0"/></linearGradient><linearGradient id="i" x1="200" x2="200" y1="0" y2="400" gradientUnits="userSpaceOnUse"><stop offset=".09" stop-color="#49235F"/><stop offset="1" stop-color="#D387FF"/></linearGradient><linearGradient id="j" x1="200" x2="200" y1="0" y2="400" gradientUnits="userSpaceOnUse"><stop stop-color="#D387FF" stop-opacity=".6"/><stop offset="1" stop-color="#D387FF" stop-opacity="0"/></linearGradient></defs></svg>