<svg xmlns="http://www.w3.org/2000/svg" width="1000" height="1000" fill="none"><path stroke="url(#a)" stroke-width="5" d="M498.232 182.359c-22.401-22.401-61.363-24.952-107.147-9.691-45.625 15.209-97.227 47.896-143.875 94.544-46.648 46.648-79.335 98.25-94.544 143.875-15.261 45.784-12.71 84.746 9.691 107.148 22.401 22.401 61.363 24.951 107.147 9.69 45.626-15.208 97.228-47.895 143.876-94.543 46.648-46.648 79.334-98.25 94.543-143.876 15.261-45.784 12.711-84.746-9.691-107.147z"/><path fill="url(#b)" stroke="url(#c)" stroke-width="3.125" d="M527.18 209.98c-22.788-22.788-62.217-25.214-108.107-9.917-45.791 15.263-97.513 48.041-144.242 94.769-46.729 46.729-79.506 98.452-94.77 144.243-15.296 45.889-12.87 85.319 9.917 108.106 22.788 22.788 62.217 25.214 108.107 9.917 45.791-15.263 97.513-48.041 144.242-94.77 46.729-46.728 79.506-98.451 94.77-144.242 15.296-45.889 12.87-85.319-9.917-108.106z"/><path fill="url(#d)" stroke="url(#e)" stroke-width="3.125" d="M555.464 238.266c-22.787-22.788-62.217-25.214-108.106-9.917-45.791 15.263-97.514 48.041-144.243 94.77-46.728 46.728-79.506 98.451-94.769 144.242-15.297 45.89-12.871 85.319 9.917 108.106 22.787 22.788 62.216 25.214 108.106 9.917 45.791-15.263 97.514-48.041 144.242-94.769 46.729-46.729 79.507-98.452 94.77-144.243 15.297-45.889 12.871-85.319-9.917-108.106z"/><path fill="url(#f)" stroke="url(#g)" stroke-width="3.125" d="M583.748 266.547c-22.788-22.787-62.217-25.213-108.107-9.917-45.79 15.264-97.513 48.042-144.242 94.77-46.728 46.729-79.506 98.451-94.77 144.242-15.296 45.89-12.87 85.319 9.917 108.107 22.788 22.787 62.217 25.213 108.107 9.917 45.791-15.264 97.514-48.041 144.242-94.77 46.729-46.729 79.506-98.451 94.77-144.242 15.296-45.89 12.87-85.319-9.917-108.107z"/><path fill="url(#h)" stroke="url(#i)" stroke-width="3.125" d="M612.032 294.833c-22.788-22.787-62.217-25.213-108.107-9.917-45.79 15.264-97.513 48.041-144.242 94.77-46.728 46.729-79.506 98.451-94.77 144.242-15.296 45.89-12.87 85.319 9.917 108.107 22.788 22.787 62.217 25.213 108.107 9.917 45.791-15.264 97.514-48.041 144.242-94.77 46.729-46.729 79.506-98.451 94.77-144.242 15.296-45.89 12.87-85.319-9.917-108.107z"/><path fill="url(#j)" stroke="url(#k)" stroke-width="3.125" d="M640.314 323.118c-22.788-22.788-62.217-25.214-108.107-9.917-45.791 15.263-97.513 48.041-144.242 94.769-46.729 46.729-79.506 98.452-94.77 144.243-15.296 45.889-12.87 85.319 9.917 108.106 22.788 22.788 62.217 25.214 108.107 9.917 45.791-15.263 97.513-48.041 144.242-94.77 46.728-46.728 79.506-98.451 94.77-144.242 15.296-45.89 12.87-85.319-9.917-108.106z"/><path fill="url(#l)" stroke="url(#m)" stroke-width="3.125" d="M668.601 351.401c-22.788-22.788-62.217-25.214-108.107-9.917-45.791 15.263-97.513 48.041-144.242 94.769-46.729 46.729-79.506 98.452-94.77 144.242-15.296 45.89-12.87 85.32 9.917 108.107 22.788 22.788 62.217 25.214 108.107 9.917 45.791-15.264 97.513-48.041 144.242-94.77 46.729-46.728 79.506-98.451 94.77-144.242 15.296-45.89 12.87-85.319-9.917-108.106z"/><path fill="url(#n)" stroke="url(#o)" stroke-width="3.125" d="M696.885 379.686c-22.788-22.787-62.217-25.213-108.107-9.916-45.79 15.263-97.513 48.041-144.242 94.769-46.728 46.729-79.506 98.452-94.769 144.242-15.297 45.89-12.871 85.32 9.916 108.107 22.788 22.788 62.217 25.214 108.107 9.917 45.791-15.264 97.514-48.041 144.242-94.77 46.729-46.728 79.506-98.451 94.77-144.242 15.297-45.89 12.871-85.319-9.917-108.107z"/><path fill="url(#p)" stroke="url(#q)" stroke-width="3.125" d="M725.169 407.973c-22.787-22.788-62.216-25.214-108.106-9.917-45.791 15.263-97.514 48.041-144.242 94.769-46.729 46.729-79.506 98.452-94.77 144.242-15.297 45.89-12.871 85.32 9.917 108.107 22.787 22.788 62.217 25.214 108.107 9.917 45.79-15.263 97.513-48.041 144.242-94.77 46.728-46.728 79.506-98.451 94.769-144.242 15.297-45.89 12.871-85.319-9.917-108.106z"/><path fill="url(#r)" stroke="url(#s)" stroke-width="3.125" d="M753.451 436.252c-22.787-22.787-62.217-25.213-108.107-9.917-45.79 15.264-97.513 48.042-144.242 94.77-46.728 46.729-79.506 98.452-94.769 144.242-15.297 45.89-12.871 85.319 9.917 108.107 22.787 22.787 62.216 25.213 108.106 9.917 45.791-15.264 97.514-48.041 144.242-94.77 46.729-46.728 79.507-98.451 94.77-144.242 15.297-45.89 12.871-85.319-9.917-108.107z"/><path fill="url(#t)" stroke="url(#u)" stroke-width="3.125" d="M781.738 464.54c-22.788-22.788-62.217-25.214-108.107-9.917-45.79 15.264-97.513 48.041-144.242 94.77-46.728 46.728-79.506 98.451-94.77 144.242-15.296 45.89-12.87 85.319 9.917 108.107 22.788 22.787 62.217 25.213 108.107 9.916 45.791-15.263 97.513-48.041 144.242-94.769 46.729-46.729 79.506-98.452 94.77-144.242 15.296-45.89 12.87-85.319-9.917-108.107z"/><path fill="url(#v)" stroke="url(#w)" stroke-width="3.125" d="M810.022 492.821c-22.787-22.787-62.216-25.213-108.106-9.917-45.791 15.264-97.514 48.041-144.242 94.77-46.729 46.729-79.507 98.451-94.77 144.242-15.297 45.89-12.871 85.319 9.917 108.107 22.787 22.787 62.217 25.213 108.106 9.917 45.791-15.264 97.514-48.041 144.243-94.77 46.728-46.729 79.506-98.451 94.769-144.242 15.297-45.89 12.871-85.319-9.917-108.107z"/><path stroke="url(#x)" stroke-width="5" d="M837.644 521.77c-22.402-22.401-61.364-24.952-107.148-9.69-45.625 15.208-97.227 47.895-143.875 94.543-46.648 46.648-79.335 98.25-94.544 143.876-15.261 45.784-12.71 84.746 9.691 107.147 22.401 22.401 61.363 24.952 107.147 9.69 45.626-15.208 97.228-47.895 143.876-94.543 46.648-46.648 79.335-98.25 94.543-143.875 15.261-45.785 12.711-84.747-9.69-107.148z"/><path fill="url(#y)" d="m667.942 575 18.4 54.766 59.543-34.377-48.171 68.224 18.399 54.765-48.171-12.601-48.171 68.224 18.4-76.011L590 685.389l59.543-34.377L667.942 575z"/><defs><linearGradient id="a" x1="415.147" x2="245.442" y1="435.15" y2="265.444" gradientUnits="userSpaceOnUse"><stop stop-color="#D387FF" stop-opacity="0"/><stop offset="1" stop-color="#D387FF" stop-opacity=".6"/></linearGradient><linearGradient id="b" x1="520.454" x2="659.662" y1="130.456" y2="349.189" gradientUnits="userSpaceOnUse"><stop stop-color="#B16FD8"/><stop offset=".945" stop-color="#2F1941"/></linearGradient><linearGradient id="c" x1="443.432" x2="273.726" y1="463.433" y2="293.728" gradientUnits="userSpaceOnUse"><stop stop-color="#D387FF" stop-opacity=".6"/><stop offset="1" stop-color="#D387FF" stop-opacity="0"/></linearGradient><linearGradient id="d" x1="548.738" x2="687.946" y1="158.742" y2="377.475" gradientUnits="userSpaceOnUse"><stop stop-color="#B16FD8"/><stop offset=".945" stop-color="#2F1941"/></linearGradient><linearGradient id="e" x1="471.716" x2="302.011" y1="491.719" y2="322.014" gradientUnits="userSpaceOnUse"><stop stop-color="#D387FF" stop-opacity=".6"/><stop offset="1" stop-color="#D387FF" stop-opacity="0"/></linearGradient><linearGradient id="f" x1="577.022" x2="716.23" y1="187.023" y2="405.757" gradientUnits="userSpaceOnUse"><stop stop-color="#B16FD8"/><stop offset=".945" stop-color="#2F1941"/></linearGradient><linearGradient id="g" x1="500" x2="330.294" y1="520.001" y2="350.295" gradientUnits="userSpaceOnUse"><stop stop-color="#D387FF" stop-opacity=".6"/><stop offset="1" stop-color="#D387FF" stop-opacity="0"/></linearGradient><linearGradient id="h" x1="605.306" x2="744.514" y1="215.309" y2="434.043" gradientUnits="userSpaceOnUse"><stop stop-color="#B16FD8"/><stop offset=".945" stop-color="#2F1941"/></linearGradient><linearGradient id="i" x1="528.284" x2="358.578" y1="548.287" y2="378.581" gradientUnits="userSpaceOnUse"><stop stop-color="#D387FF" stop-opacity=".6"/><stop offset="1" stop-color="#D387FF" stop-opacity="0"/></linearGradient><linearGradient id="j" x1="633.588" x2="772.796" y1="243.594" y2="462.327" gradientUnits="userSpaceOnUse"><stop stop-color="#B16FD8"/><stop offset=".945" stop-color="#2F1941"/></linearGradient><linearGradient id="k" x1="556.566" x2="386.86" y1="576.571" y2="406.866" gradientUnits="userSpaceOnUse"><stop stop-color="#D387FF" stop-opacity=".6"/><stop offset="1" stop-color="#D387FF" stop-opacity="0"/></linearGradient><linearGradient id="l" x1="661.875" x2="801.083" y1="271.877" y2="490.61" gradientUnits="userSpaceOnUse"><stop stop-color="#B16FD8"/><stop offset=".945" stop-color="#2F1941"/></linearGradient><linearGradient id="m" x1="584.853" x2="415.147" y1="604.854" y2="435.149" gradientUnits="userSpaceOnUse"><stop stop-color="#D387FF" stop-opacity=".6"/><stop offset="1" stop-color="#D387FF" stop-opacity="0"/></linearGradient><linearGradient id="n" x1="690.159" x2="829.367" y1="300.163" y2="518.896" gradientUnits="userSpaceOnUse"><stop stop-color="#B16FD8"/><stop offset=".945" stop-color="#2F1941"/></linearGradient><linearGradient id="o" x1="613.137" x2="443.431" y1="633.14" y2="463.434" gradientUnits="userSpaceOnUse"><stop stop-color="#D387FF" stop-opacity=".6"/><stop offset="1" stop-color="#D387FF" stop-opacity="0"/></linearGradient><linearGradient id="p" x1="718.443" x2="857.651" y1="328.449" y2="547.182" gradientUnits="userSpaceOnUse"><stop stop-color="#B16FD8"/><stop offset=".945" stop-color="#2F1941"/></linearGradient><linearGradient id="q" x1="641.421" x2="471.716" y1="661.426" y2="491.721" gradientUnits="userSpaceOnUse"><stop stop-color="#D387FF" stop-opacity=".6"/><stop offset="1" stop-color="#D387FF" stop-opacity="0"/></linearGradient><linearGradient id="r" x1="746.725" x2="885.933" y1="356.728" y2="575.462" gradientUnits="userSpaceOnUse"><stop stop-color="#B16FD8"/><stop offset=".945" stop-color="#2F1941"/></linearGradient><linearGradient id="s" x1="669.703" x2="499.998" y1="689.706" y2="520" gradientUnits="userSpaceOnUse"><stop stop-color="#D387FF" stop-opacity=".6"/><stop offset="1" stop-color="#D387FF" stop-opacity="0"/></linearGradient><linearGradient id="t" x1="775.012" x2="914.22" y1="385.016" y2="603.749" gradientUnits="userSpaceOnUse"><stop stop-color="#B16FD8"/><stop offset=".945" stop-color="#2F1941"/></linearGradient><linearGradient id="u" x1="697.99" x2="528.284" y1="717.994" y2="548.288" gradientUnits="userSpaceOnUse"><stop stop-color="#D387FF" stop-opacity=".6"/><stop offset="1" stop-color="#D387FF" stop-opacity="0"/></linearGradient><linearGradient id="v" x1="803.296" x2="942.504" y1="413.297" y2="632.031" gradientUnits="userSpaceOnUse"><stop stop-color="#B16FD8"/><stop offset=".945" stop-color="#2F1941"/></linearGradient><linearGradient id="w" x1="726.274" x2="556.569" y1="746.275" y2="576.569" gradientUnits="userSpaceOnUse"><stop stop-color="#D387FF" stop-opacity=".6"/><stop offset="1" stop-color="#D387FF" stop-opacity="0"/></linearGradient><linearGradient id="x" x1="754.559" x2="584.853" y1="774.561" y2="604.855" gradientUnits="userSpaceOnUse"><stop stop-color="#D387FF" stop-opacity=".6"/><stop offset="1" stop-color="#D387FF" stop-opacity="0"/></linearGradient><linearGradient id="y" x1="667.942" x2="742.07" y1="575" y2="703.392" gradientUnits="userSpaceOnUse"><stop stop-color="#D387FF" stop-opacity=".6"/><stop offset="1" stop-color="#D387FF" stop-opacity="0"/></linearGradient></defs></svg>